<svg width="95" height="97" viewBox="0 0 95 97" fill="none" xmlns="http://www.w3.org/2000/svg">
<rect x="0.149988" y="0.149988" width="93.3" height="2.16" stroke="#303030" stroke-width="0.3"/>
<rect x="1.14999" y="67.76" width="93.3" height="2.3" stroke="#303030" stroke-width="0.3"/>
<rect x="3.14999" y="9.75997" width="11.3" height="3.3" fill="white" stroke="#303030" stroke-width="0.3"/>
<mask id="path-4-outside-1_2469_1495" maskUnits="userSpaceOnUse" x="3.29999" y="12.91" width="11" height="2" fill="black">
<rect fill="white" x="3.29999" y="12.91" width="11" height="2"/>
<path d="M4.29999 12.91H13.3V13.91H4.29999V12.91Z"/>
</mask>
<path d="M13.3 13.91V14.21H13.6V13.91H13.3ZM4.29999 13.91H3.99999V14.21H4.29999V13.91ZM13.3 12.91H13V13.91H13.3H13.6V12.91H13.3ZM13.3 13.91V13.61H4.29999V13.91V14.21H13.3V13.91ZM4.29999 13.91H4.59999V12.91H4.29999H3.99999V13.91H4.29999Z" fill="#303030" mask="url(#path-4-outside-1_2469_1495)"/>
<mask id="path-6-outside-2_2469_1495" maskUnits="userSpaceOnUse" x="3.29999" y="13.91" width="11" height="50" fill="black">
<rect fill="white" x="3.29999" y="13.91" width="11" height="50"/>
<path d="M4.29999 13.91H13.3V63.91H4.29999V13.91Z"/>
</mask>
<path d="M13.3 13.91H13V63.91H13.3H13.6V13.91H13.3ZM4.29999 63.91H4.59999V13.91H4.29999H3.99999V63.91H4.29999Z" fill="#303030" mask="url(#path-6-outside-2_2469_1495)"/>
<mask id="path-8-outside-3_2469_1495" maskUnits="userSpaceOnUse" x="2.29999" y="63.91" width="13" height="4" fill="black">
<rect fill="white" x="2.29999" y="63.91" width="13" height="4"/>
<path d="M3.29999 67.91H14.3V64.91H3.29999V67.91Z"/>
</mask>
<path d="M14.3 64.91V64.61H14.6V64.91H14.3ZM3.29999 64.91H2.99999V64.61H3.29999V64.91ZM14.3 67.91H14V64.91H14.3H14.6V67.91H14.3ZM14.3 64.91V65.21H3.29999V64.91V64.61H14.3V64.91ZM3.29999 64.91H3.59999V67.91H3.29999H2.99999V64.91H3.29999Z" fill="#303030" mask="url(#path-8-outside-3_2469_1495)"/>
<mask id="path-10-outside-4_2469_1495" maskUnits="userSpaceOnUse" x="3.29999" y="62.91" width="11" height="2" fill="black">
<rect fill="white" x="3.29999" y="62.91" width="11" height="2"/>
<path d="M4.29999 64.91H13.3V63.91H4.29999V64.91Z"/>
</mask>
<path d="M13.3 63.91V63.61H13.6V63.91H13.3ZM4.29999 63.91H3.99999V63.61H4.29999V63.91ZM13.3 64.91H13V63.91H13.3H13.6V64.91H13.3ZM13.3 63.91V64.21H4.29999V63.91V63.61H13.3V63.91ZM4.29999 63.91H4.59999V64.91H4.29999H3.99999V63.91H4.29999Z" fill="#303030" mask="url(#path-10-outside-4_2469_1495)"/>
<rect x="29.15" y="9.75997" width="11.3" height="3.3" stroke="#303030" stroke-width="0.3"/>
<mask id="path-13-outside-5_2469_1495" maskUnits="userSpaceOnUse" x="29.3" y="12.91" width="11" height="2" fill="black">
<rect fill="white" x="29.3" y="12.91" width="11" height="2"/>
<path d="M30.3 12.91H39.3V13.91H30.3V12.91Z"/>
</mask>
<path d="M39.3 13.91V14.21H39.6V13.91H39.3ZM30.3 13.91H30V14.21H30.3V13.91ZM39.3 12.91H39V13.91H39.3H39.6V12.91H39.3ZM39.3 13.91V13.61H30.3V13.91V14.21H39.3V13.91ZM30.3 13.91H30.6V12.91H30.3H30V13.91H30.3Z" fill="#303030" mask="url(#path-13-outside-5_2469_1495)"/>
<mask id="path-15-outside-6_2469_1495" maskUnits="userSpaceOnUse" x="29.3" y="13.91" width="11" height="50" fill="black">
<rect fill="white" x="29.3" y="13.91" width="11" height="50"/>
<path d="M30.3 13.91H39.3V63.91H30.3V13.91Z"/>
</mask>
<path d="M39.3 13.91H39V63.91H39.3H39.6V13.91H39.3ZM30.3 63.91H30.6V13.91H30.3H30V63.91H30.3Z" fill="#303030" mask="url(#path-15-outside-6_2469_1495)"/>
<mask id="path-17-outside-7_2469_1495" maskUnits="userSpaceOnUse" x="28.3" y="63.91" width="13" height="4" fill="black">
<rect fill="white" x="28.3" y="63.91" width="13" height="4"/>
<path d="M29.3 67.91H40.3V64.91H29.3V67.91Z"/>
</mask>
<path d="M40.3 64.91V64.61H40.6V64.91H40.3ZM29.3 64.91H29V64.61H29.3V64.91ZM40.3 67.91H40V64.91H40.3H40.6V67.91H40.3ZM40.3 64.91V65.21H29.3V64.91V64.61H40.3V64.91ZM29.3 64.91H29.6V67.91H29.3H29V64.91H29.3Z" fill="#303030" mask="url(#path-17-outside-7_2469_1495)"/>
<mask id="path-19-outside-8_2469_1495" maskUnits="userSpaceOnUse" x="29.3" y="62.91" width="11" height="2" fill="black">
<rect fill="white" x="29.3" y="62.91" width="11" height="2"/>
<path d="M30.3 64.91H39.3V63.91H30.3V64.91Z"/>
</mask>
<path d="M39.3 63.91V63.61H39.6V63.91H39.3ZM30.3 63.91H30V63.61H30.3V63.91ZM39.3 64.91H39V63.91H39.3H39.6V64.91H39.3ZM39.3 63.91V64.21H30.3V63.91V63.61H39.3V63.91ZM30.3 63.91H30.6V64.91H30.3H30V63.91H30.3Z" fill="#303030" mask="url(#path-19-outside-8_2469_1495)"/>
<rect x="79.15" y="9.75997" width="11.3" height="3.3" stroke="#303030" stroke-width="0.3"/>
<mask id="path-22-outside-9_2469_1495" maskUnits="userSpaceOnUse" x="79.3" y="12.91" width="11" height="2" fill="black">
<rect fill="white" x="79.3" y="12.91" width="11" height="2"/>
<path d="M80.3 12.91H89.3V13.91H80.3V12.91Z"/>
</mask>
<path d="M89.3 13.91V14.21H89.6V13.91H89.3ZM80.3 13.91H80V14.21H80.3V13.91ZM89.3 12.91H89V13.91H89.3H89.6V12.91H89.3ZM89.3 13.91V13.61H80.3V13.91V14.21H89.3V13.91ZM80.3 13.91H80.6V12.91H80.3H80V13.91H80.3Z" fill="#303030" mask="url(#path-22-outside-9_2469_1495)"/>
<mask id="path-24-outside-10_2469_1495" maskUnits="userSpaceOnUse" x="79.3" y="13.91" width="11" height="50" fill="black">
<rect fill="white" x="79.3" y="13.91" width="11" height="50"/>
<path d="M80.3 13.91H89.3V63.91H80.3V13.91Z"/>
</mask>
<path d="M89.3 13.91H89V63.91H89.3H89.6V13.91H89.3ZM80.3 63.91H80.6V13.91H80.3H80V63.91H80.3Z" fill="#303030" mask="url(#path-24-outside-10_2469_1495)"/>
<mask id="path-26-outside-11_2469_1495" maskUnits="userSpaceOnUse" x="78.3" y="63.91" width="13" height="4" fill="black">
<rect fill="white" x="78.3" y="63.91" width="13" height="4"/>
<path d="M79.3 67.91H90.3V64.91H79.3V67.91Z"/>
</mask>
<path d="M90.3 64.91V64.61H90.6V64.91H90.3ZM79.3 64.91H79V64.61H79.3V64.91ZM90.3 67.91H90V64.91H90.3H90.6V67.91H90.3ZM90.3 64.91V65.21H79.3V64.91V64.61H90.3V64.91ZM79.3 64.91H79.6V67.91H79.3H79V64.91H79.3Z" fill="#303030" mask="url(#path-26-outside-11_2469_1495)"/>
<mask id="path-28-outside-12_2469_1495" maskUnits="userSpaceOnUse" x="79.3" y="62.91" width="11" height="2" fill="black">
<rect fill="white" x="79.3" y="62.91" width="11" height="2"/>
<path d="M80.3 64.91H89.3V63.91H80.3V64.91Z"/>
</mask>
<path d="M89.3 63.91V63.61H89.6V63.91H89.3ZM80.3 63.91H80V63.61H80.3V63.91ZM89.3 64.91H89V63.91H89.3H89.6V64.91H89.3ZM89.3 63.91V64.21H80.3V63.91V63.61H89.3V63.91ZM80.3 63.91H80.6V64.91H80.3H80V63.91H80.3Z" fill="#303030" mask="url(#path-28-outside-12_2469_1495)"/>
<rect x="55.15" y="9.75997" width="11.3" height="3.3" stroke="#303030" stroke-width="0.3"/>
<mask id="path-31-outside-13_2469_1495" maskUnits="userSpaceOnUse" x="55.3" y="12.91" width="11" height="2" fill="black">
<rect fill="white" x="55.3" y="12.91" width="11" height="2"/>
<path d="M56.3 12.91H65.3V13.91H56.3V12.91Z"/>
</mask>
<path d="M65.3 13.91V14.21H65.6V13.91H65.3ZM56.3 13.91H56V14.21H56.3V13.91ZM65.3 12.91H65V13.91H65.3H65.6V12.91H65.3ZM65.3 13.91V13.61H56.3V13.91V14.21H65.3V13.91ZM56.3 13.91H56.6V12.91H56.3H56V13.91H56.3Z" fill="#303030" mask="url(#path-31-outside-13_2469_1495)"/>
<mask id="path-33-outside-14_2469_1495" maskUnits="userSpaceOnUse" x="55.3" y="13.91" width="11" height="50" fill="black">
<rect fill="white" x="55.3" y="13.91" width="11" height="50"/>
<path d="M56.3 13.91H65.3V63.91H56.3V13.91Z"/>
</mask>
<path d="M65.3 13.91H65V63.91H65.3H65.6V13.91H65.3ZM56.3 63.91H56.6V13.91H56.3H56V63.91H56.3Z" fill="#303030" mask="url(#path-33-outside-14_2469_1495)"/>
<mask id="path-35-outside-15_2469_1495" maskUnits="userSpaceOnUse" x="54.3" y="63.91" width="13" height="4" fill="black">
<rect fill="white" x="54.3" y="63.91" width="13" height="4"/>
<path d="M55.3 67.91H66.3V64.91H55.3V67.91Z"/>
</mask>
<path d="M66.3 64.91V64.61H66.6V64.91H66.3ZM55.3 64.91H55V64.61H55.3V64.91ZM66.3 67.91H66V64.91H66.3H66.6V67.91H66.3ZM66.3 64.91V65.21H55.3V64.91V64.61H66.3V64.91ZM55.3 64.91H55.6V67.91H55.3H55V64.91H55.3Z" fill="#303030" mask="url(#path-35-outside-15_2469_1495)"/>
<mask id="path-37-outside-16_2469_1495" maskUnits="userSpaceOnUse" x="55.3" y="62.91" width="11" height="2" fill="black">
<rect fill="white" x="55.3" y="62.91" width="11" height="2"/>
<path d="M56.3 64.91H65.3V63.91H56.3V64.91Z"/>
</mask>
<path d="M65.3 63.91V63.61H65.6V63.91H65.3ZM56.3 63.91H56V63.61H56.3V63.91ZM65.3 64.91H65V63.91H65.3H65.6V64.91H65.3ZM65.3 63.91V64.21H56.3V63.91V63.61H65.3V63.91ZM56.3 63.91H56.6V64.91H56.3H56V63.91H56.3Z" fill="#303030" mask="url(#path-37-outside-16_2469_1495)"/>
<mask id="path-39-outside-17_2469_1495" maskUnits="userSpaceOnUse" x="3.02002" y="7.73999" width="87" height="3" fill="black">
<rect fill="white" x="3.02002" y="7.73999" width="87" height="3"/>
<path d="M4.02002 7.73999H89.58V9.59999H4.02002V7.73999Z"/>
</mask>
<path d="M89.58 9.59999V9.89999H89.88V9.59999H89.58ZM4.02002 9.59999H3.72002V9.89999H4.02002V9.59999ZM89.58 7.73999H89.28V9.59999H89.58H89.88V7.73999H89.58ZM89.58 9.59999V9.29999H4.02002V9.59999V9.89999H89.58V9.59999ZM4.02002 9.59999H4.32002V7.73999H4.02002H3.72002V9.59999H4.02002Z" fill="#303030" mask="url(#path-39-outside-17_2469_1495)"/>
<mask id="path-41-outside-18_2469_1495" maskUnits="userSpaceOnUse" x="1.15997" y="2.15997" width="91" height="6" fill="black">
<rect fill="white" x="1.15997" y="2.15997" width="91" height="6"/>
<path d="M2.15997 2.15997H91.44V7.73998H2.15997V2.15997Z"/>
</mask>
<path d="M91.44 7.73998V8.03998H91.74V7.73998H91.44ZM2.15997 7.73998H1.85997V8.03998H2.15997V7.73998ZM91.44 2.15997H91.14V7.73998H91.44H91.74V2.15997H91.44ZM91.44 7.73998V7.43998H2.15997V7.73998V8.03998H91.44V7.73998ZM2.15997 7.73998H2.45997V2.15997H2.15997H1.85997V7.73998H2.15997Z" fill="#303030" mask="url(#path-41-outside-18_2469_1495)"/>
<path d="M12.6828 76.2961V76.3351C12.6698 76.3677 12.66 76.4165 12.6535 76.4816C12.647 76.5467 12.6437 76.6053 12.6437 76.6574C12.6437 76.8592 12.6698 77.0838 12.7219 77.3312C12.7805 77.5721 12.8879 77.8749 13.0441 78.2394L17.3703 87.9953L21.55 78.3176C21.6476 78.0767 21.7518 77.813 21.8625 77.5266C21.9732 77.2401 22.0285 76.9504 22.0285 76.6574C22.0285 76.5793 22.022 76.5142 22.009 76.4621C21.996 76.4035 21.9829 76.3612 21.9699 76.3351V76.2961H23.9719V76.3351C23.8482 76.4588 23.6984 76.6802 23.5226 76.9992C23.3469 77.3182 23.1548 77.7121 22.9465 78.1808L17.3508 90.6027H16.5695L11.2668 78.6594C11.1431 78.3794 11.0129 78.1092 10.8762 77.8488C10.746 77.5884 10.6223 77.354 10.5051 77.1457C10.3879 76.9308 10.2837 76.7518 10.1926 76.6086C10.1014 76.4654 10.0396 76.3742 10.007 76.3351V76.2961H12.6828ZM24.968 76.2961C25.7818 76.2961 26.5891 76.2928 27.3898 76.2863C28.1971 76.2798 28.9361 76.2733 29.6066 76.2668C30.2772 76.2538 30.8501 76.2375 31.3254 76.218C31.8006 76.1984 32.1229 76.1724 32.2922 76.1398L31.8137 77.4387C31.5988 77.3801 31.3482 77.328 31.0617 77.2824C30.8143 77.2433 30.5116 77.2075 30.1535 77.175C29.8019 77.1359 29.395 77.1164 28.9328 77.1164C28.7766 77.1164 28.5877 77.1229 28.3664 77.1359C28.1516 77.1424 27.9432 77.1522 27.7414 77.1652C27.507 77.1782 27.2694 77.1913 27.0285 77.2043V82.5363C27.6991 82.5298 28.3045 82.5103 28.8449 82.4777C29.3853 82.4452 29.8443 82.4126 30.2219 82.3801C30.6646 82.341 31.0552 82.2954 31.3937 82.2433L31.091 83.6594C30.6418 83.6008 30.1828 83.5454 29.7141 83.4933C29.3104 83.4478 28.871 83.4087 28.3957 83.3762C27.9204 83.3371 27.4647 83.3176 27.0285 83.3176V89.4406C27.7967 89.4406 28.5031 89.4081 29.1476 89.343C29.7922 89.2779 30.3553 89.203 30.8371 89.1183C31.397 89.0272 31.9081 88.9198 32.3703 88.7961L32.0871 90.3781C32.009 90.3716 31.8918 90.3651 31.7355 90.3586C31.5793 90.3521 31.4035 90.3456 31.2082 90.3391C31.0194 90.3325 30.8176 90.326 30.6027 90.3195C30.3944 90.3195 30.1958 90.3163 30.007 90.3098C29.8182 90.3098 29.6489 90.3065 29.4992 90.3C29.356 90.3 29.2518 90.3 29.1867 90.3H24.968V90.2609C25.007 90.1242 25.0428 89.9549 25.0754 89.7531C25.1144 89.5513 25.147 89.3006 25.173 89.0012C25.1991 88.7017 25.2186 88.3469 25.2316 87.9367C25.2446 87.52 25.2512 87.035 25.2512 86.4816V80.1242C25.2512 79.5708 25.2446 79.0891 25.2316 78.6789C25.2186 78.2622 25.1991 77.9042 25.173 77.6047C25.147 77.2987 25.1144 77.0448 25.0754 76.843C25.0428 76.6411 25.007 76.4719 24.968 76.3351V76.2961ZM36.8332 86.4816C36.8332 87.035 36.8397 87.52 36.8527 87.9367C36.8723 88.3469 36.8918 88.7017 36.9113 89.0012C36.9374 89.3006 36.9667 89.5513 36.9992 89.7531C37.0383 89.9549 37.0773 90.1242 37.1164 90.2609V90.3H34.7726V90.2609C34.8117 90.1242 34.8475 89.9549 34.8801 89.7531C34.9191 89.5513 34.9484 89.3006 34.968 89.0012C34.994 88.7017 35.0135 88.3469 35.0266 87.9367C35.0461 87.5266 35.0558 87.0415 35.0558 86.4816V80.1242C35.0558 79.5708 35.0461 79.0891 35.0266 78.6789C35.0135 78.2622 34.994 77.9042 34.968 77.6047C34.9484 77.3052 34.9191 77.0545 34.8801 76.8527C34.8475 76.6444 34.8117 76.4719 34.7726 76.3351V76.2961L35.1828 76.3351C35.3065 76.3482 35.4432 76.3579 35.593 76.3644C35.7492 76.3644 35.9087 76.3644 36.0715 76.3644C36.3254 76.3644 36.6672 76.3351 37.0969 76.2766C37.5331 76.2114 38.0864 76.1789 38.757 76.1789C39.382 76.1789 39.9582 76.2635 40.4855 76.4328C41.0194 76.6021 41.4816 76.8495 41.8723 77.175C42.2629 77.5005 42.5656 77.9009 42.7805 78.3762C43.0018 78.8449 43.1125 79.3788 43.1125 79.9777C43.1125 80.4465 43.0506 80.8827 42.9269 81.2863C42.8098 81.6835 42.6405 82.0448 42.4191 82.3703C42.2043 82.6958 41.9439 82.9855 41.6379 83.2394C41.3319 83.4868 40.9901 83.6952 40.6125 83.8644L44.0402 88.6789C44.2095 88.9198 44.3657 89.1281 44.509 89.3039C44.6587 89.4797 44.7987 89.6327 44.9289 89.7629C45.0656 89.8866 45.1958 89.9907 45.3195 90.0754C45.4432 90.1535 45.5702 90.2154 45.7004 90.2609V90.3H42.8781C42.8586 90.1763 42.7935 90.0135 42.6828 89.8117C42.5786 89.6034 42.4549 89.3983 42.3117 89.1965L38.8547 84.3234C38.7049 84.3364 38.5552 84.3495 38.4055 84.3625C38.2557 84.369 38.1027 84.3723 37.9465 84.3723C37.7642 84.3723 37.5786 84.3657 37.3898 84.3527C37.2075 84.3397 37.022 84.3169 36.8332 84.2844V86.4816ZM36.8332 83.5226C37.009 83.5617 37.188 83.591 37.3703 83.6105C37.5526 83.6236 37.7284 83.6301 37.8976 83.6301C38.3859 83.6301 38.8319 83.5585 39.2355 83.4152C39.6392 83.2655 39.981 83.0409 40.2609 82.7414C40.5474 82.4419 40.7687 82.0708 40.925 81.6281C41.0812 81.1789 41.1594 80.6548 41.1594 80.0558C41.1594 79.5676 41.104 79.1249 40.9933 78.7277C40.8827 78.3306 40.7167 77.9953 40.4953 77.7219C40.2805 77.4419 40.007 77.2271 39.675 77.0773C39.343 76.9211 38.9556 76.843 38.5129 76.843C38.0637 76.843 37.7056 76.8657 37.4387 76.9113C37.1717 76.9569 36.9699 77.0057 36.8332 77.0578V83.5226ZM49.6652 77.1555C48.897 77.1555 48.2036 77.1913 47.5851 77.2629C46.9667 77.328 46.4328 77.3996 45.9836 77.4777C45.4627 77.5754 44.9973 77.6828 44.5871 77.8L44.8703 76.218C44.9484 76.2245 45.0656 76.231 45.2219 76.2375C45.3781 76.244 45.5506 76.2505 45.7394 76.257C45.9348 76.2635 46.1366 76.27 46.3449 76.2766C46.5598 76.2766 46.7616 76.2798 46.9504 76.2863C47.1392 76.2863 47.3052 76.2896 47.4484 76.2961C47.5982 76.2961 47.7056 76.2961 47.7707 76.2961H53.3469C53.412 76.2961 53.5161 76.2961 53.6594 76.2961C53.8091 76.2896 53.9784 76.2863 54.1672 76.2863C54.356 76.2798 54.5545 76.2766 54.7629 76.2766C54.9777 76.27 55.1795 76.2635 55.3683 76.257C55.5637 76.2505 55.7394 76.244 55.8957 76.2375C56.0519 76.231 56.1691 76.2245 56.2473 76.218L56.5305 77.8C56.1138 77.6828 55.645 77.5754 55.1242 77.4777C54.675 77.3996 54.1411 77.328 53.5226 77.2629C52.9042 77.1913 52.2108 77.1555 51.4426 77.1555V86.4816C51.4426 87.035 51.4491 87.52 51.4621 87.9367C51.4816 88.3469 51.5012 88.7017 51.5207 89.0012C51.5467 89.3006 51.576 89.5513 51.6086 89.7531C51.6476 89.9549 51.6867 90.1242 51.7258 90.2609V90.3H49.3918V90.2609C49.4308 90.1242 49.4667 89.9549 49.4992 89.7531C49.5318 89.5513 49.5611 89.3006 49.5871 89.0012C49.6131 88.7017 49.6327 88.3469 49.6457 87.9367C49.6587 87.52 49.6652 87.035 49.6652 86.4816V77.1555ZM58.0246 90.2609C58.0637 90.1242 58.0995 89.9549 58.132 89.7531C58.1646 89.5513 58.1939 89.3006 58.2199 89.0012C58.246 88.7017 58.2655 88.3469 58.2785 87.9367C58.2915 87.52 58.298 87.035 58.298 86.4816V80.1242C58.298 79.5708 58.2915 79.0891 58.2785 78.6789C58.2655 78.2622 58.246 77.9042 58.2199 77.6047C58.1939 77.2987 58.1646 77.0448 58.132 76.843C58.0995 76.6411 58.0637 76.4719 58.0246 76.3351V76.2961H60.3586V76.3351C60.3195 76.4719 60.2805 76.6411 60.2414 76.843C60.2088 77.0448 60.1795 77.2987 60.1535 77.6047C60.134 77.9042 60.1144 78.2622 60.0949 78.6789C60.0819 79.0891 60.0754 79.5708 60.0754 80.1242V86.4816C60.0754 87.035 60.0819 87.52 60.0949 87.9367C60.1144 88.3469 60.134 88.7017 60.1535 89.0012C60.1795 89.3006 60.2088 89.5513 60.2414 89.7531C60.2805 89.9549 60.3195 90.1242 60.3586 90.2609V90.3H58.0246V90.2609ZM74.5773 78.4445L74.4894 78.4836C73.9816 78.0148 73.3696 77.6405 72.6535 77.3605C71.9439 77.0806 71.1626 76.9406 70.3098 76.9406C69.4894 76.9406 68.7375 77.0708 68.0539 77.3312C67.3703 77.5851 66.7811 77.9562 66.2863 78.4445C65.798 78.9328 65.4172 79.5318 65.1437 80.2414C64.8703 80.951 64.7336 81.7583 64.7336 82.6633C64.7336 83.6594 64.8638 84.5904 65.1242 85.4562C65.3846 86.3156 65.772 87.0611 66.2863 87.6926C66.8006 88.3241 67.4419 88.8221 68.2101 89.1867C68.9849 89.5448 69.8866 89.7238 70.9152 89.7238C71.2863 89.7238 71.6574 89.6848 72.0285 89.6066C72.3996 89.5285 72.7544 89.4146 73.093 89.2648C73.438 89.1086 73.7603 88.923 74.0598 88.7082C74.3657 88.4868 74.6424 88.2362 74.8898 87.9562L74.9973 88.0246L74.216 90.0168C73.7277 90.2056 73.1874 90.3488 72.5949 90.4465C72.009 90.5506 71.4165 90.6027 70.8176 90.6027C69.6131 90.6027 68.5096 90.4302 67.507 90.0851C66.5109 89.7336 65.6516 89.2388 64.9289 88.6008C64.2127 87.9627 63.6529 87.1978 63.2492 86.3058C62.8521 85.4074 62.6535 84.4113 62.6535 83.3176C62.6535 82.6991 62.7316 82.0904 62.8879 81.4914C63.0506 80.8924 63.285 80.3228 63.591 79.7824C63.897 79.242 64.2746 78.7473 64.7238 78.298C65.173 77.8423 65.6841 77.4484 66.257 77.1164C66.8364 76.7844 67.4712 76.5272 68.1613 76.3449C68.8579 76.1561 69.6099 76.0617 70.4172 76.0617C71.6737 76.0617 72.8391 76.2538 73.9133 76.6379L74.5773 78.4445ZM76.7844 76.2961C77.5982 76.2961 78.4055 76.2928 79.2062 76.2863C80.0135 76.2798 80.7525 76.2733 81.423 76.2668C82.0936 76.2538 82.6665 76.2375 83.1418 76.218C83.617 76.1984 83.9393 76.1724 84.1086 76.1398L83.6301 77.4387C83.4152 77.3801 83.1646 77.328 82.8781 77.2824C82.6307 77.2433 82.328 77.2075 81.9699 77.175C81.6183 77.1359 81.2114 77.1164 80.7492 77.1164C80.593 77.1164 80.4042 77.1229 80.1828 77.1359C79.968 77.1424 79.7596 77.1522 79.5578 77.1652C79.3234 77.1782 79.0858 77.1913 78.8449 77.2043V82.5363C79.5155 82.5298 80.121 82.5103 80.6613 82.4777C81.2017 82.4452 81.6607 82.4126 82.0383 82.3801C82.481 82.341 82.8716 82.2954 83.2101 82.2433L82.9074 83.6594C82.4582 83.6008 81.9992 83.5454 81.5305 83.4933C81.1268 83.4478 80.6874 83.4087 80.2121 83.3762C79.7368 83.3371 79.2811 83.3176 78.8449 83.3176V89.4406C79.6131 89.4406 80.3195 89.4081 80.9641 89.343C81.6086 89.2779 82.1717 89.203 82.6535 89.1183C83.2134 89.0272 83.7245 88.9198 84.1867 88.7961L83.9035 90.3781C83.8254 90.3716 83.7082 90.3651 83.5519 90.3586C83.3957 90.3521 83.2199 90.3456 83.0246 90.3391C82.8358 90.3325 82.634 90.326 82.4191 90.3195C82.2108 90.3195 82.0122 90.3163 81.8234 90.3098C81.6346 90.3098 81.4654 90.3065 81.3156 90.3C81.1724 90.3 81.0682 90.3 81.0031 90.3H76.7844V90.2609C76.8234 90.1242 76.8592 89.9549 76.8918 89.7531C76.9308 89.5513 76.9634 89.3006 76.9894 89.0012C77.0155 88.7017 77.035 88.3469 77.048 87.9367C77.0611 87.52 77.0676 87.035 77.0676 86.4816V80.1242C77.0676 79.5708 77.0611 79.0891 77.048 78.6789C77.035 78.2622 77.0155 77.9042 76.9894 77.6047C76.9634 77.2987 76.9308 77.0448 76.8918 76.843C76.8592 76.6411 76.8234 76.4719 76.7844 76.3351V76.2961Z" fill="#303030"/>
</svg>
